<svg xmlns="http://www.w3.org/2000/svg" xmlns:xlink="http://www.w3.org/1999/xlink" width="2234" zoomAndPan="magnify" viewBox="0 0 1675.5 783.749999" height="1045" preserveAspectRatio="xMidYMid meet" version="1.0"><defs><g/><clipPath id="f7ba7111fc"><path d="M 0.015625 95 L 565 95 L 565 682 L 0.015625 682 Z M 0.015625 95 " clip-rule="nonzero"/></clipPath><clipPath id="3415b4fe1b"><path d="M 0.015625 27.289062 L 430.332031 27.289062 L 430.332031 457.601562 L 0.015625 457.601562 Z M 0.015625 27.289062 " clip-rule="nonzero"/></clipPath><clipPath id="9a1ce48423"><path d="M 215.175781 27.289062 C 96.347656 27.289062 0.015625 123.617188 0.015625 242.445312 C 0.015625 361.273438 96.347656 457.601562 215.175781 457.601562 C 334 457.601562 430.332031 361.273438 430.332031 242.445312 C 430.332031 123.617188 334 27.289062 215.175781 27.289062 Z M 215.175781 27.289062 " clip-rule="nonzero"/></clipPath><clipPath id="7207d2a374"><path d="M 95.472656 117.671875 L 543.421875 117.671875 L 543.421875 565.621094 L 95.472656 565.621094 Z M 95.472656 117.671875 " clip-rule="nonzero"/></clipPath><clipPath id="e850d934b1"><path d="M 319.445312 117.671875 C 195.746094 117.671875 95.472656 217.949219 95.472656 341.648438 C 95.472656 465.34375 195.746094 565.621094 319.445312 565.621094 C 443.144531 565.621094 543.421875 465.34375 543.421875 341.648438 C 543.421875 217.949219 443.144531 117.671875 319.445312 117.671875 Z M 319.445312 117.671875 " clip-rule="nonzero"/></clipPath><clipPath id="acc78f9305"><path d="M 0.472656 0.671875 L 448.421875 0.671875 L 448.421875 448.621094 L 0.472656 448.621094 Z M 0.472656 0.671875 " clip-rule="nonzero"/></clipPath><clipPath id="9781de0758"><path d="M 224.445312 0.671875 C 100.746094 0.671875 0.472656 100.949219 0.472656 224.648438 C 0.472656 348.34375 100.746094 448.621094 224.445312 448.621094 C 348.144531 448.621094 448.421875 348.34375 448.421875 224.648438 C 448.421875 100.949219 348.144531 0.671875 224.445312 0.671875 Z M 224.445312 0.671875 " clip-rule="nonzero"/></clipPath><clipPath id="ecc3537bed"><rect x="0" width="449" y="0" height="449"/></clipPath><clipPath id="f248596792"><path d="M 95.472656 117.671875 L 543.410156 117.671875 L 543.410156 565.613281 L 95.472656 565.613281 Z M 95.472656 117.671875 " clip-rule="nonzero"/></clipPath><clipPath id="2934be5535"><path d="M 319.441406 117.671875 C 195.746094 117.671875 95.472656 217.945312 95.472656 341.644531 C 95.472656 465.339844 195.746094 565.613281 319.441406 565.613281 C 443.136719 565.613281 543.410156 465.339844 543.410156 341.644531 C 543.410156 217.945312 443.136719 117.671875 319.441406 117.671875 Z M 319.441406 117.671875 " clip-rule="nonzero"/></clipPath><clipPath id="1b2ee2f558"><rect x="0" width="565" y="0" height="587"/></clipPath></defs><g clip-path="url(#f7ba7111fc)"><g transform="matrix(1, 0, 0, 1, 0, 95)"><g clip-path="url(#1b2ee2f558)"><g clip-path="url(#3415b4fe1b)"><g clip-path="url(#9a1ce48423)"><path stroke-linecap="butt" transform="matrix(0.717189, 0, 0, 0.717189, 0.0172209, 27.28879)" fill="none" stroke-linejoin="miter" d="M 300.002447 0.000379431 C 134.3166 0.000379431 -0.00222519 134.313758 -0.00222519 299.999605 C -0.00222519 465.685451 134.3166 599.99883 300.002447 599.99883 C 465.682847 599.99883 600.001672 465.685451 600.001672 299.999605 C 600.001672 134.313758 465.682847 0.000379431 300.002447 0.000379431 Z M 300.002447 0.000379431 " stroke="#a6a6a6" stroke-width="16.726646" stroke-opacity="1" stroke-miterlimit="4"/></g></g><g clip-path="url(#7207d2a374)"><g clip-path="url(#e850d934b1)"><g transform="matrix(1, 0, 0, 1, 95, 117)"><g clip-path="url(#ecc3537bed)"><g clip-path="url(#acc78f9305)"><g clip-path="url(#9781de0758)"><path fill="#a6a6a6" d="M 0.472656 0.671875 L 448.421875 0.671875 L 448.421875 448.621094 L 0.472656 448.621094 Z M 0.472656 0.671875 " fill-opacity="1" fill-rule="nonzero"/></g></g></g></g></g></g><g clip-path="url(#f248596792)"><g clip-path="url(#2934be5535)"><path stroke-linecap="butt" transform="matrix(0.717189, 0, 0, 0.717189, 95.471011, 117.672279)" fill="none" stroke-linejoin="miter" d="M 312.289069 -0.000563461 C 139.816747 -0.000563461 0.00229353 139.81389 0.00229353 312.291658 C 0.00229353 484.76398 139.816747 624.578433 312.289069 624.578433 C 484.76139 624.578433 624.575844 484.76398 624.575844 312.291658 C 624.575844 139.81389 484.76139 -0.000563461 312.289069 -0.000563461 Z M 312.289069 -0.000563461 " stroke="#a6a6a6" stroke-width="12.544985" stroke-opacity="1" stroke-miterlimit="4"/></g></g></g></g></g><g fill="#ffffff" fill-opacity="1"><g transform="translate(576.916225, 362.214592)"><g><path d="M 149.96875 -44.3125 C 151.875 -44.3125 153.5625 -43.578125 155.03125 -42.109375 L 168.8125 -27.15625 C 161.1875 -17.71875 151.804688 -10.484375 140.671875 -5.453125 C 129.535156 -0.429688 116.171875 2.078125 100.578125 2.078125 C 86.628906 2.078125 74.085938 -0.300781 62.953125 -5.0625 C 51.828125 -9.832031 42.320312 -16.460938 34.4375 -24.953125 C 26.550781 -33.441406 20.503906 -43.578125 16.296875 -55.359375 C 12.097656 -67.140625 10 -80.003906 10 -93.953125 C 10 -108.078125 12.25 -121.007812 16.75 -132.75 C 21.257812 -144.488281 27.609375 -154.601562 35.796875 -163.09375 C 43.984375 -171.582031 53.75 -178.1875 65.09375 -182.90625 C 76.445312 -187.625 89.015625 -189.984375 102.796875 -189.984375 C 116.484375 -189.984375 128.628906 -187.726562 139.234375 -183.21875 C 149.847656 -178.71875 158.882812 -172.832031 166.34375 -165.5625 L 154.640625 -149.3125 C 153.953125 -148.269531 153.066406 -147.359375 151.984375 -146.578125 C 150.898438 -145.804688 149.40625 -145.421875 147.5 -145.421875 C 146.195312 -145.421875 144.851562 -145.785156 143.46875 -146.515625 C 142.082031 -147.253906 140.566406 -148.164062 138.921875 -149.25 C 137.273438 -150.332031 135.367188 -151.523438 133.203125 -152.828125 C 131.035156 -154.128906 128.519531 -155.316406 125.65625 -156.390625 C 122.800781 -157.472656 119.488281 -158.382812 115.71875 -159.125 C 111.957031 -159.863281 107.601562 -160.234375 102.65625 -160.234375 C 94.257812 -160.234375 86.570312 -158.738281 79.59375 -155.75 C 72.625 -152.757812 66.625 -148.425781 61.59375 -142.75 C 56.570312 -137.070312 52.675781 -130.140625 49.90625 -121.953125 C 47.132812 -113.773438 45.75 -104.441406 45.75 -93.953125 C 45.75 -83.390625 47.238281 -73.988281 50.21875 -65.75 C 53.207031 -57.519531 57.257812 -50.585938 62.375 -44.953125 C 67.488281 -39.328125 73.507812 -35.019531 80.4375 -32.03125 C 87.375 -29.039062 94.828125 -27.546875 102.796875 -27.546875 C 107.554688 -27.546875 111.863281 -27.804688 115.71875 -28.328125 C 119.570312 -28.847656 123.125 -29.671875 126.375 -30.796875 C 129.625 -31.921875 132.695312 -33.367188 135.59375 -35.140625 C 138.5 -36.921875 141.382812 -39.113281 144.25 -41.71875 C 145.113281 -42.5 146.019531 -43.125 146.96875 -43.59375 C 147.925781 -44.070312 148.925781 -44.3125 149.96875 -44.3125 Z M 149.96875 -44.3125 "/></g></g></g><g fill="#ffffff" fill-opacity="1"><g transform="translate(734.683009, 362.214592)"><g><path d="M 74.859375 -135.40625 C 84.734375 -135.40625 93.71875 -133.800781 101.8125 -130.59375 C 109.914062 -127.394531 116.847656 -122.847656 122.609375 -116.953125 C 128.367188 -111.066406 132.804688 -103.878906 135.921875 -95.390625 C 139.046875 -86.898438 140.609375 -77.410156 140.609375 -66.921875 C 140.609375 -56.359375 139.046875 -46.828125 135.921875 -38.328125 C 132.804688 -29.835938 128.367188 -22.601562 122.609375 -16.625 C 116.847656 -10.65625 109.914062 -6.066406 101.8125 -2.859375 C 93.71875 0.347656 84.734375 1.953125 74.859375 1.953125 C 64.890625 1.953125 55.832031 0.347656 47.6875 -2.859375 C 39.550781 -6.066406 32.597656 -10.65625 26.828125 -16.625 C 21.066406 -22.601562 16.601562 -29.835938 13.4375 -38.328125 C 10.28125 -46.828125 8.703125 -56.359375 8.703125 -66.921875 C 8.703125 -77.410156 10.28125 -86.898438 13.4375 -95.390625 C 16.601562 -103.878906 21.066406 -111.066406 26.828125 -116.953125 C 32.597656 -122.847656 39.550781 -127.394531 47.6875 -130.59375 C 55.832031 -133.800781 64.890625 -135.40625 74.859375 -135.40625 Z M 74.859375 -22.734375 C 85.941406 -22.734375 94.144531 -26.457031 99.46875 -33.90625 C 104.800781 -41.363281 107.46875 -52.285156 107.46875 -66.671875 C 107.46875 -81.046875 104.800781 -92 99.46875 -99.53125 C 94.144531 -107.070312 85.941406 -110.84375 74.859375 -110.84375 C 63.585938 -110.84375 55.242188 -107.050781 49.828125 -99.46875 C 44.421875 -91.894531 41.71875 -80.960938 41.71875 -66.671875 C 41.71875 -52.367188 44.421875 -41.46875 49.828125 -33.96875 C 55.242188 -26.476562 63.585938 -22.734375 74.859375 -22.734375 Z M 74.859375 -22.734375 "/></g></g></g><g fill="#ffffff" fill-opacity="1"><g transform="translate(872.566488, 362.214592)"><g><path d="M 47.953125 -34.5625 C 51.585938 -30.144531 55.550781 -27.023438 59.84375 -25.203125 C 64.132812 -23.390625 68.789062 -22.484375 73.8125 -22.484375 C 78.664062 -22.484375 83.039062 -23.390625 86.9375 -25.203125 C 90.832031 -27.023438 94.144531 -29.796875 96.875 -33.515625 C 99.601562 -37.242188 101.703125 -41.945312 103.171875 -47.625 C 104.648438 -53.300781 105.390625 -59.992188 105.390625 -67.703125 C 105.390625 -75.503906 104.757812 -82.109375 103.5 -87.515625 C 102.25 -92.929688 100.453125 -97.328125 98.109375 -100.703125 C 95.773438 -104.085938 92.9375 -106.554688 89.59375 -108.109375 C 86.257812 -109.671875 82.472656 -110.453125 78.234375 -110.453125 C 71.554688 -110.453125 65.878906 -109.046875 61.203125 -106.234375 C 56.523438 -103.421875 52.109375 -99.457031 47.953125 -94.34375 Z M 46.265625 -115.140625 C 51.722656 -121.285156 57.914062 -126.265625 64.84375 -130.078125 C 71.78125 -133.890625 79.925781 -135.796875 89.28125 -135.796875 C 96.550781 -135.796875 103.195312 -134.28125 109.21875 -131.25 C 115.238281 -128.21875 120.4375 -123.820312 124.8125 -118.0625 C 129.1875 -112.300781 132.566406 -105.195312 134.953125 -96.75 C 137.335938 -88.300781 138.53125 -78.617188 138.53125 -67.703125 C 138.53125 -57.742188 137.1875 -48.519531 134.5 -40.03125 C 131.8125 -31.539062 127.976562 -24.175781 123 -17.9375 C 118.019531 -11.695312 112 -6.820312 104.9375 -3.3125 C 97.875 0.195312 89.96875 1.953125 81.21875 1.953125 C 73.769531 1.953125 67.398438 0.804688 62.109375 -1.484375 C 56.828125 -3.785156 52.109375 -6.972656 47.953125 -11.046875 L 47.953125 43.53125 L 15.859375 43.53125 L 15.859375 -133.328125 L 35.484375 -133.328125 C 39.640625 -133.328125 42.367188 -131.378906 43.671875 -127.484375 Z M 46.265625 -115.140625 "/></g></g></g><g fill="#ffffff" fill-opacity="1"><g transform="translate(1004.991799, 362.214592)"><g><path d="M 136.96875 -133.328125 L 64.328125 36.640625 C 63.367188 38.898438 62.128906 40.613281 60.609375 41.78125 C 59.097656 42.945312 56.785156 43.53125 53.671875 43.53125 L 29.765625 43.53125 L 54.703125 -10 L 0.78125 -133.328125 L 28.984375 -133.328125 C 31.492188 -133.328125 33.460938 -132.71875 34.890625 -131.5 C 36.316406 -130.289062 37.378906 -128.910156 38.078125 -127.359375 L 66.40625 -58.21875 C 67.351562 -55.875 68.148438 -53.53125 68.796875 -51.1875 C 69.453125 -48.851562 70.082031 -46.472656 70.6875 -44.046875 C 71.46875 -46.472656 72.25 -48.878906 73.03125 -51.265625 C 73.8125 -53.648438 74.675781 -56.007812 75.625 -58.34375 L 102.40625 -127.359375 C 103.09375 -129.085938 104.238281 -130.515625 105.84375 -131.640625 C 107.445312 -132.765625 109.242188 -133.328125 111.234375 -133.328125 Z M 136.96875 -133.328125 "/></g></g></g><g fill="#000000" fill-opacity="1"><g transform="translate(1124.171326, 362.214592)"><g/></g></g><g fill="#737373" fill-opacity="1"><g transform="translate(576.916225, 621.631832)"><g><path d="M 179.328125 -187.90625 L 179.328125 0 L 161.40625 0 C 158.632812 0 156.316406 -0.453125 154.453125 -1.359375 C 152.585938 -2.273438 150.789062 -3.816406 149.0625 -5.984375 L 50.9375 -131.25 C 51.457031 -125.53125 51.71875 -120.242188 51.71875 -115.390625 L 51.71875 0 L 20.921875 0 L 20.921875 -187.90625 L 39.25 -187.90625 C 40.71875 -187.90625 41.992188 -187.835938 43.078125 -187.703125 C 44.160156 -187.578125 45.113281 -187.320312 45.9375 -186.9375 C 46.757812 -186.550781 47.5625 -185.988281 48.34375 -185.25 C 49.125 -184.507812 49.988281 -183.535156 50.9375 -182.328125 L 149.453125 -56.53125 C 149.191406 -59.5625 148.972656 -62.550781 148.796875 -65.5 C 148.617188 -68.445312 148.53125 -71.175781 148.53125 -73.6875 L 148.53125 -187.90625 Z M 179.328125 -187.90625 "/></g></g></g><g fill="#737373" fill-opacity="1"><g transform="translate(762.363683, 621.631832)"><g><path d="M 86.28125 -56.921875 C 77.019531 -56.484375 69.222656 -55.679688 62.890625 -54.515625 C 56.566406 -53.347656 51.5 -51.851562 47.6875 -50.03125 C 43.875 -48.207031 41.144531 -46.082031 39.5 -43.65625 C 37.851562 -41.238281 37.03125 -38.597656 37.03125 -35.734375 C 37.03125 -30.109375 38.695312 -26.082031 42.03125 -23.65625 C 45.375 -21.226562 49.726562 -20.015625 55.09375 -20.015625 C 61.6875 -20.015625 67.382812 -21.203125 72.1875 -23.578125 C 77 -25.960938 81.695312 -29.582031 86.28125 -34.4375 Z M 12.734375 -114.75 C 28.066406 -128.78125 46.519531 -135.796875 68.09375 -135.796875 C 75.894531 -135.796875 82.867188 -134.519531 89.015625 -131.96875 C 95.171875 -129.414062 100.367188 -125.863281 104.609375 -121.3125 C 108.859375 -116.757812 112.085938 -111.320312 114.296875 -105 C 116.503906 -98.675781 117.609375 -91.742188 117.609375 -84.203125 L 117.609375 0 L 103.046875 0 C 100.015625 0 97.675781 -0.453125 96.03125 -1.359375 C 94.382812 -2.273438 93.085938 -4.117188 92.140625 -6.890625 L 89.28125 -16.5 C 85.894531 -13.46875 82.597656 -10.800781 79.390625 -8.5 C 76.191406 -6.207031 72.859375 -4.28125 69.390625 -2.71875 C 65.929688 -1.164062 62.226562 0.0195312 58.28125 0.84375 C 54.34375 1.664062 49.988281 2.078125 45.21875 2.078125 C 39.59375 2.078125 34.394531 1.320312 29.625 -0.1875 C 24.863281 -1.707031 20.75 -3.984375 17.28125 -7.015625 C 13.8125 -10.046875 11.125 -13.8125 9.21875 -18.3125 C 7.320312 -22.820312 6.375 -28.066406 6.375 -34.046875 C 6.375 -37.421875 6.9375 -40.773438 8.0625 -44.109375 C 9.1875 -47.453125 11.023438 -50.640625 13.578125 -53.671875 C 16.128906 -56.703125 19.441406 -59.5625 23.515625 -62.25 C 27.585938 -64.9375 32.59375 -67.273438 38.53125 -69.265625 C 44.46875 -71.253906 51.375 -72.875 59.25 -74.125 C 67.132812 -75.382812 76.144531 -76.144531 86.28125 -76.40625 L 86.28125 -84.203125 C 86.28125 -93.128906 84.375 -99.734375 80.5625 -104.015625 C 76.757812 -108.304688 71.257812 -110.453125 64.0625 -110.453125 C 58.863281 -110.453125 54.550781 -109.847656 51.125 -108.640625 C 47.707031 -107.429688 44.695312 -106.066406 42.09375 -104.546875 C 39.5 -103.023438 37.140625 -101.660156 35.015625 -100.453125 C 32.898438 -99.242188 30.539062 -98.640625 27.9375 -98.640625 C 25.6875 -98.640625 23.78125 -99.222656 22.21875 -100.390625 C 20.664062 -101.554688 19.410156 -102.921875 18.453125 -104.484375 Z M 12.734375 -114.75 "/></g></g></g><g fill="#737373" fill-opacity="1"><g transform="translate(881.013606, 621.631832)"><g><path d="M 60.296875 2.078125 C 48.691406 2.078125 39.789062 -1.191406 33.59375 -7.734375 C 27.394531 -14.273438 24.296875 -23.304688 24.296875 -34.828125 L 24.296875 -109.296875 L 10.65625 -109.296875 C 8.925781 -109.296875 7.453125 -109.859375 6.234375 -110.984375 C 5.023438 -112.109375 4.421875 -113.796875 4.421875 -116.046875 L 4.421875 -128.78125 L 25.859375 -132.296875 L 32.625 -168.671875 C 33.050781 -170.410156 33.867188 -171.753906 35.078125 -172.703125 C 36.296875 -173.660156 37.859375 -174.140625 39.765625 -174.140625 L 56.40625 -174.140625 L 56.40625 -132.15625 L 92 -132.15625 L 92 -109.296875 L 56.40625 -109.296875 L 56.40625 -37.03125 C 56.40625 -32.875 57.421875 -29.625 59.453125 -27.28125 C 61.484375 -24.945312 64.273438 -23.78125 67.828125 -23.78125 C 69.828125 -23.78125 71.5 -24.015625 72.84375 -24.484375 C 74.1875 -24.960938 75.351562 -25.460938 76.34375 -25.984375 C 77.34375 -26.503906 78.234375 -27.003906 79.015625 -27.484375 C 79.796875 -27.960938 80.570312 -28.203125 81.34375 -28.203125 C 82.300781 -28.203125 83.082031 -27.960938 83.6875 -27.484375 C 84.289062 -27.003906 84.941406 -26.289062 85.640625 -25.34375 L 95.25 -9.75 C 90.570312 -5.851562 85.203125 -2.90625 79.140625 -0.90625 C 73.078125 1.082031 66.796875 2.078125 60.296875 2.078125 Z M 60.296875 2.078125 "/></g></g></g><g fill="#737373" fill-opacity="1"><g transform="translate(966.264759, 621.631832)"><g><path d="M 49.125 -133.328125 L 49.125 0 L 16.890625 0 L 16.890625 -133.328125 Z M 53.546875 -172.1875 C 53.546875 -169.414062 52.976562 -166.816406 51.84375 -164.390625 C 50.71875 -161.960938 49.222656 -159.835938 47.359375 -158.015625 C 45.503906 -156.203125 43.316406 -154.753906 40.796875 -153.671875 C 38.285156 -152.585938 35.601562 -152.046875 32.75 -152.046875 C 29.976562 -152.046875 27.359375 -152.585938 24.890625 -153.671875 C 22.421875 -154.753906 20.273438 -156.203125 18.453125 -158.015625 C 16.628906 -159.835938 15.175781 -161.960938 14.09375 -164.390625 C 13.007812 -166.816406 12.46875 -169.414062 12.46875 -172.1875 C 12.46875 -175.039062 13.007812 -177.722656 14.09375 -180.234375 C 15.175781 -182.753906 16.628906 -184.921875 18.453125 -186.734375 C 20.273438 -188.554688 22.421875 -190.007812 24.890625 -191.09375 C 27.359375 -192.175781 29.976562 -192.71875 32.75 -192.71875 C 35.601562 -192.71875 38.285156 -192.175781 40.796875 -191.09375 C 43.316406 -190.007812 45.503906 -188.554688 47.359375 -186.734375 C 49.222656 -184.921875 50.71875 -182.753906 51.84375 -180.234375 C 52.976562 -177.722656 53.546875 -175.039062 53.546875 -172.1875 Z M 53.546875 -172.1875 "/></g></g></g><g fill="#737373" fill-opacity="1"><g transform="translate(1020.846147, 621.631832)"><g><path d="M 136.0625 -133.328125 L 83.171875 0 L 54.0625 0 L 1.171875 -133.328125 L 27.6875 -133.328125 C 30.101562 -133.328125 32.113281 -132.765625 33.71875 -131.640625 C 35.320312 -130.515625 36.382812 -129.085938 36.90625 -127.359375 L 62.640625 -56.140625 C 64.023438 -51.984375 65.234375 -47.910156 66.265625 -43.921875 C 67.304688 -39.941406 68.21875 -35.957031 69 -31.96875 C 69.863281 -35.957031 70.816406 -39.941406 71.859375 -43.921875 C 72.898438 -47.910156 74.15625 -51.984375 75.625 -56.140625 L 101.890625 -127.359375 C 102.492188 -129.085938 103.570312 -130.515625 105.125 -131.640625 C 106.6875 -132.765625 108.550781 -133.328125 110.71875 -133.328125 Z M 136.0625 -133.328125 "/></g></g></g><g fill="#737373" fill-opacity="1"><g transform="translate(1142.485092, 621.631832)"><g><path d="M 101.75 -82 C 101.75 -86.15625 101.164062 -90.070312 100 -93.75 C 98.832031 -97.4375 97.078125 -100.664062 94.734375 -103.4375 C 92.398438 -106.207031 89.429688 -108.394531 85.828125 -110 C 82.234375 -111.601562 78.054688 -112.40625 73.296875 -112.40625 C 64.023438 -112.40625 56.722656 -109.765625 51.390625 -104.484375 C 46.066406 -99.203125 42.664062 -91.707031 41.1875 -82 Z M 40.546875 -62.640625 C 41.066406 -55.796875 42.28125 -49.878906 44.1875 -44.890625 C 46.09375 -39.910156 48.601562 -35.796875 51.71875 -32.546875 C 54.84375 -29.304688 58.546875 -26.882812 62.828125 -25.28125 C 67.117188 -23.675781 71.863281 -22.875 77.0625 -22.875 C 82.257812 -22.875 86.742188 -23.476562 90.515625 -24.6875 C 94.285156 -25.90625 97.578125 -27.25 100.390625 -28.71875 C 103.203125 -30.1875 105.671875 -31.523438 107.796875 -32.734375 C 109.921875 -33.953125 111.976562 -34.5625 113.96875 -34.5625 C 116.65625 -34.5625 118.648438 -33.566406 119.953125 -31.578125 L 129.171875 -19.890625 C 125.617188 -15.722656 121.632812 -12.234375 117.21875 -9.421875 C 112.800781 -6.609375 108.1875 -4.351562 103.375 -2.65625 C 98.570312 -0.96875 93.675781 0.21875 88.6875 0.90625 C 83.707031 1.601562 78.878906 1.953125 74.203125 1.953125 C 64.929688 1.953125 56.3125 0.414062 48.34375 -2.65625 C 40.375 -5.738281 33.441406 -10.289062 27.546875 -16.3125 C 21.660156 -22.332031 17.023438 -29.78125 13.640625 -38.65625 C 10.265625 -47.539062 8.578125 -57.832031 8.578125 -69.53125 C 8.578125 -78.625 10.046875 -87.175781 12.984375 -95.1875 C 15.929688 -103.207031 20.15625 -110.179688 25.65625 -116.109375 C 31.164062 -122.046875 37.882812 -126.742188 45.8125 -130.203125 C 53.738281 -133.671875 62.679688 -135.40625 72.640625 -135.40625 C 81.046875 -135.40625 88.800781 -134.0625 95.90625 -131.375 C 103.007812 -128.695312 109.113281 -124.78125 114.21875 -119.625 C 119.332031 -114.46875 123.34375 -108.140625 126.25 -100.640625 C 129.15625 -93.148438 130.609375 -84.597656 130.609375 -74.984375 C 130.609375 -70.128906 130.085938 -66.859375 129.046875 -65.171875 C 128.003906 -63.484375 126.007812 -62.640625 123.0625 -62.640625 Z M 40.546875 -62.640625 "/></g></g></g><g fill="#000000" fill-opacity="1"><g transform="translate(1269.847512, 621.631832)"><g/></g></g><g fill="#ffffff" fill-opacity="1"><g transform="translate(1321.581007, 621.631832)"><g><path d="M 96.5625 -28.203125 C 103.3125 -28.203125 109.347656 -29.328125 114.671875 -31.578125 C 120.003906 -33.828125 124.488281 -36.988281 128.125 -41.0625 C 131.769531 -45.132812 134.566406 -50.070312 136.515625 -55.875 C 138.460938 -61.6875 139.4375 -68.1875 139.4375 -75.375 L 139.4375 -187.90625 L 174.390625 -187.90625 L 174.390625 -75.375 C 174.390625 -64.195312 172.59375 -53.863281 169 -44.375 C 165.40625 -34.894531 160.25 -26.707031 153.53125 -19.8125 C 146.820312 -12.925781 138.660156 -7.554688 129.046875 -3.703125 C 119.429688 0.148438 108.601562 2.078125 96.5625 2.078125 C 84.425781 2.078125 73.550781 0.148438 63.9375 -3.703125 C 54.320312 -7.554688 46.15625 -12.925781 39.4375 -19.8125 C 32.726562 -26.707031 27.570312 -34.894531 23.96875 -44.375 C 20.375 -53.863281 18.578125 -64.195312 18.578125 -75.375 L 18.578125 -187.90625 L 53.546875 -187.90625 L 53.546875 -75.5 C 53.546875 -68.3125 54.519531 -61.8125 56.46875 -56 C 58.414062 -50.195312 61.226562 -45.238281 64.90625 -41.125 C 68.59375 -37.007812 73.097656 -33.828125 78.421875 -31.578125 C 83.753906 -29.328125 89.800781 -28.203125 96.5625 -28.203125 Z M 96.5625 -28.203125 "/></g></g></g><g fill="#ffffff" fill-opacity="1"><g transform="translate(1503.129762, 621.631832)"><g><path d="M 56.015625 0 L 20.921875 0 L 20.921875 -187.90625 L 56.015625 -187.90625 Z M 56.015625 0 "/></g></g></g></svg>