<svg xmlns="http://www.w3.org/2000/svg" xmlns:xlink="http://www.w3.org/1999/xlink" width="1548" zoomAndPan="magnify" viewBox="0 0 1161 519.000007" height="692" preserveAspectRatio="xMidYMid meet" version="1.0"><defs><g/><clipPath id="1a9f678b82"><path d="M 1.117188 0 L 1159.882812 0 L 1159.882812 518 L 1.117188 518 Z M 1.117188 0 " clip-rule="nonzero"/></clipPath><clipPath id="65360604d1"><path d="M 1.117188 31 L 429 31 L 429 482 L 1.117188 482 Z M 1.117188 31 " clip-rule="nonzero"/></clipPath><clipPath id="fb490f07f1"><path d="M 0.117188 26.238281 L 322.300781 26.238281 L 322.300781 348.421875 L 0.117188 348.421875 Z M 0.117188 26.238281 " clip-rule="nonzero"/></clipPath><clipPath id="3370ca381b"><path d="M 161.207031 26.238281 C 72.238281 26.238281 0.117188 98.359375 0.117188 187.328125 C 0.117188 276.296875 72.238281 348.421875 161.207031 348.421875 C 250.175781 348.421875 322.300781 276.296875 322.300781 187.328125 C 322.300781 98.359375 250.175781 26.238281 161.207031 26.238281 Z M 161.207031 26.238281 " clip-rule="nonzero"/></clipPath><clipPath id="75155dce72"><path d="M 71.585938 93.910156 L 406.972656 93.910156 L 406.972656 429.296875 L 71.585938 429.296875 Z M 71.585938 93.910156 " clip-rule="nonzero"/></clipPath><clipPath id="ef6b9a9770"><path d="M 239.277344 93.910156 C 146.664062 93.910156 71.585938 168.988281 71.585938 261.605469 C 71.585938 354.21875 146.664062 429.296875 239.277344 429.296875 C 331.894531 429.296875 406.972656 354.21875 406.972656 261.605469 C 406.972656 168.988281 331.894531 93.910156 239.277344 93.910156 Z M 239.277344 93.910156 " clip-rule="nonzero"/></clipPath><clipPath id="459cc37833"><path d="M 0.585938 0.910156 L 335.972656 0.910156 L 335.972656 336.296875 L 0.585938 336.296875 Z M 0.585938 0.910156 " clip-rule="nonzero"/></clipPath><clipPath id="21fb1aebb2"><path d="M 168.277344 0.910156 C 75.664062 0.910156 0.585938 75.988281 0.585938 168.605469 C 0.585938 261.21875 75.664062 336.296875 168.277344 336.296875 C 260.894531 336.296875 335.972656 261.21875 335.972656 168.605469 C 335.972656 75.988281 260.894531 0.910156 168.277344 0.910156 Z M 168.277344 0.910156 " clip-rule="nonzero"/></clipPath><clipPath id="c3e3f7104e"><rect x="0" width="336" y="0" height="337"/></clipPath><clipPath id="319e0d8dbc"><path d="M 71.585938 93.910156 L 406.96875 93.910156 L 406.96875 429.292969 L 71.585938 429.292969 Z M 71.585938 93.910156 " clip-rule="nonzero"/></clipPath><clipPath id="134d7ece16"><path d="M 239.277344 93.910156 C 146.664062 93.910156 71.585938 168.988281 71.585938 261.601562 C 71.585938 354.214844 146.664062 429.292969 239.277344 429.292969 C 331.890625 429.292969 406.96875 354.214844 406.96875 261.601562 C 406.96875 168.988281 331.890625 93.910156 239.277344 93.910156 Z M 239.277344 93.910156 " clip-rule="nonzero"/></clipPath><clipPath id="5f2abfa88c"><rect x="0" width="428" y="0" height="451"/></clipPath></defs><g clip-path="url(#1a9f678b82)"><path fill="#ffffff" d="M 1.117188 0 L 1159.882812 0 L 1159.882812 518 L 1.117188 518 Z M 1.117188 0 " fill-opacity="1" fill-rule="nonzero"/></g><g clip-path="url(#65360604d1)"><g transform="matrix(1, 0, 0, 1, 1, 31)"><g clip-path="url(#5f2abfa88c)"><g clip-path="url(#fb490f07f1)"><g clip-path="url(#3370ca381b)"><path stroke-linecap="butt" transform="matrix(0.536974, 0, 0, 0.536974, 0.116338, 26.237492)" fill="none" stroke-linejoin="miter" d="M 299.997059 0.00147018 C 134.311737 0.00147018 0.00158138 134.311626 0.00158138 299.996948 C 0.00158138 465.68227 134.311737 599.9997 299.997059 599.9997 C 465.682381 599.9997 599.999811 465.68227 599.999811 299.996948 C 599.999811 134.311626 465.682381 0.00147018 299.997059 0.00147018 Z M 299.997059 0.00147018 " stroke="#a6a6a6" stroke-width="22.304464" stroke-opacity="1" stroke-miterlimit="4"/></g></g><g clip-path="url(#75155dce72)"><g clip-path="url(#ef6b9a9770)"><g transform="matrix(1, 0, 0, 1, 71, 93)"><g clip-path="url(#c3e3f7104e)"><g clip-path="url(#459cc37833)"><g clip-path="url(#21fb1aebb2)"><path fill="#a6a6a6" d="M 0.585938 0.910156 L 335.972656 0.910156 L 335.972656 336.296875 L 0.585938 336.296875 Z M 0.585938 0.910156 " fill-opacity="1" fill-rule="nonzero"/></g></g></g></g></g></g><g clip-path="url(#319e0d8dbc)"><g clip-path="url(#134d7ece16)"><path stroke-linecap="butt" transform="matrix(0.536974, 0, 0, 0.536974, 71.584531, 93.909455)" fill="none" stroke-linejoin="miter" d="M 312.292099 0.00130565 C 139.819615 0.00130565 0.00261917 139.818301 0.00261917 312.290786 C 0.00261917 484.76327 139.819615 624.580265 312.292099 624.580265 C 484.764583 624.580265 624.581579 484.76327 624.581579 312.290786 C 624.581579 139.818301 484.764583 0.00130565 312.292099 0.00130565 Z M 312.292099 0.00130565 " stroke="#a6a6a6" stroke-width="16.728348" stroke-opacity="1" stroke-miterlimit="4"/></g></g></g></g></g><g fill="#ffffff" fill-opacity="1"><g transform="translate(432.899662, 239.305385)"><g><path d="M 99.203125 -29.3125 C 100.460938 -29.3125 101.582031 -28.828125 102.5625 -27.859375 L 111.671875 -17.96875 C 106.628906 -11.71875 100.425781 -6.929688 93.0625 -3.609375 C 85.695312 -0.285156 76.859375 1.375 66.546875 1.375 C 57.316406 1.375 49.019531 -0.195312 41.65625 -3.34375 C 34.289062 -6.5 28 -10.882812 22.78125 -16.5 C 17.5625 -22.125 13.5625 -28.832031 10.78125 -36.625 C 8.007812 -44.414062 6.625 -52.925781 6.625 -62.15625 C 6.625 -71.5 8.113281 -80.050781 11.09375 -87.8125 C 14.070312 -95.582031 18.269531 -102.273438 23.6875 -107.890625 C 29.101562 -113.503906 35.5625 -117.875 43.0625 -121 C 50.570312 -124.125 58.882812 -125.6875 68 -125.6875 C 77.050781 -125.6875 85.085938 -124.195312 92.109375 -121.21875 C 99.128906 -118.238281 105.109375 -114.34375 110.046875 -109.53125 L 102.296875 -98.78125 C 101.835938 -98.09375 101.25 -97.488281 100.53125 -96.96875 C 99.820312 -96.457031 98.835938 -96.203125 97.578125 -96.203125 C 96.710938 -96.203125 95.820312 -96.441406 94.90625 -96.921875 C 93.988281 -97.410156 92.984375 -98.015625 91.890625 -98.734375 C 90.804688 -99.453125 89.546875 -100.238281 88.109375 -101.09375 C 86.679688 -101.957031 85.019531 -102.742188 83.125 -103.453125 C 81.238281 -104.171875 79.046875 -104.773438 76.546875 -105.265625 C 74.054688 -105.753906 71.179688 -106 67.921875 -106 C 62.359375 -106 57.269531 -105.007812 52.65625 -103.03125 C 48.039062 -101.050781 44.070312 -98.1875 40.75 -94.4375 C 37.425781 -90.6875 34.847656 -86.101562 33.015625 -80.6875 C 31.179688 -75.269531 30.265625 -69.09375 30.265625 -62.15625 C 30.265625 -55.164062 31.25 -48.945312 33.21875 -43.5 C 35.195312 -38.050781 37.878906 -33.460938 41.265625 -29.734375 C 44.648438 -26.015625 48.632812 -23.164062 53.21875 -21.1875 C 57.800781 -19.207031 62.726562 -18.21875 68 -18.21875 C 71.15625 -18.21875 74.003906 -18.390625 76.546875 -18.734375 C 79.097656 -19.078125 81.445312 -19.617188 83.59375 -20.359375 C 85.75 -21.109375 87.785156 -22.070312 89.703125 -23.25 C 91.628906 -24.425781 93.535156 -25.875 95.421875 -27.59375 C 95.992188 -28.113281 96.59375 -28.53125 97.21875 -28.84375 C 97.851562 -29.15625 98.515625 -29.3125 99.203125 -29.3125 Z M 99.203125 -29.3125 "/></g></g></g><g fill="#ffffff" fill-opacity="1"><g transform="translate(537.263319, 239.305385)"><g><path d="M 49.515625 -89.578125 C 56.046875 -89.578125 61.988281 -88.515625 67.34375 -86.390625 C 72.707031 -84.273438 77.296875 -81.269531 81.109375 -77.375 C 84.921875 -73.476562 87.859375 -68.71875 89.921875 -63.09375 C 91.984375 -57.476562 93.015625 -51.207031 93.015625 -44.28125 C 93.015625 -37.28125 91.984375 -30.972656 89.921875 -25.359375 C 87.859375 -19.742188 84.921875 -14.957031 81.109375 -11 C 77.296875 -7.050781 72.707031 -4.015625 67.34375 -1.890625 C 61.988281 0.234375 56.046875 1.296875 49.515625 1.296875 C 42.921875 1.296875 36.929688 0.234375 31.546875 -1.890625 C 26.160156 -4.015625 21.5625 -7.050781 17.75 -11 C 13.9375 -14.957031 10.984375 -19.742188 8.890625 -25.359375 C 6.804688 -30.972656 5.765625 -37.28125 5.765625 -44.28125 C 5.765625 -51.207031 6.804688 -57.476562 8.890625 -63.09375 C 10.984375 -68.71875 13.9375 -73.476562 17.75 -77.375 C 21.5625 -81.269531 26.160156 -84.273438 31.546875 -86.390625 C 36.929688 -88.515625 42.921875 -89.578125 49.515625 -89.578125 Z M 49.515625 -15.046875 C 56.847656 -15.046875 62.273438 -17.507812 65.796875 -22.4375 C 69.328125 -27.363281 71.09375 -34.585938 71.09375 -44.109375 C 71.09375 -53.617188 69.328125 -60.863281 65.796875 -65.84375 C 62.273438 -70.832031 56.847656 -73.328125 49.515625 -73.328125 C 42.066406 -73.328125 36.550781 -70.816406 32.96875 -65.796875 C 29.382812 -60.785156 27.59375 -53.554688 27.59375 -44.109375 C 27.59375 -34.648438 29.382812 -27.441406 32.96875 -22.484375 C 36.550781 -17.523438 42.066406 -15.046875 49.515625 -15.046875 Z M 49.515625 -15.046875 "/></g></g></g><g fill="#ffffff" fill-opacity="1"><g transform="translate(628.474105, 239.305385)"><g><path d="M 31.71875 -22.875 C 34.125 -19.945312 36.742188 -17.878906 39.578125 -16.671875 C 42.421875 -15.472656 45.503906 -14.875 48.828125 -14.875 C 52.035156 -14.875 54.925781 -15.472656 57.5 -16.671875 C 60.082031 -17.878906 62.273438 -19.710938 64.078125 -22.171875 C 65.890625 -24.640625 67.28125 -27.75 68.25 -31.5 C 69.226562 -35.257812 69.71875 -39.691406 69.71875 -44.796875 C 69.71875 -49.953125 69.300781 -54.316406 68.46875 -57.890625 C 67.644531 -61.472656 66.457031 -64.382812 64.90625 -66.625 C 63.351562 -68.863281 61.472656 -70.5 59.265625 -71.53125 C 57.066406 -72.5625 54.5625 -73.078125 51.75 -73.078125 C 47.34375 -73.078125 43.585938 -72.144531 40.484375 -70.28125 C 37.390625 -68.414062 34.46875 -65.789062 31.71875 -62.40625 Z M 30.609375 -76.171875 C 34.210938 -80.234375 38.304688 -83.523438 42.890625 -86.046875 C 47.484375 -88.578125 52.875 -89.84375 59.0625 -89.84375 C 63.875 -89.84375 68.269531 -88.835938 72.25 -86.828125 C 76.238281 -84.816406 79.679688 -81.90625 82.578125 -78.09375 C 85.472656 -74.289062 87.707031 -69.59375 89.28125 -64 C 90.851562 -58.414062 91.640625 -52.015625 91.640625 -44.796875 C 91.640625 -38.203125 90.75 -32.09375 88.96875 -26.46875 C 87.195312 -20.851562 84.660156 -15.984375 81.359375 -11.859375 C 78.066406 -7.734375 74.082031 -4.507812 69.40625 -2.1875 C 64.738281 0.132812 59.515625 1.296875 53.734375 1.296875 C 48.804688 1.296875 44.59375 0.535156 41.09375 -0.984375 C 37.59375 -2.503906 34.46875 -4.613281 31.71875 -7.3125 L 31.71875 28.796875 L 10.484375 28.796875 L 10.484375 -88.203125 L 23.46875 -88.203125 C 26.21875 -88.203125 28.023438 -86.910156 28.890625 -84.328125 Z M 30.609375 -76.171875 "/></g></g></g><g fill="#ffffff" fill-opacity="1"><g transform="translate(716.07413, 239.305385)"><g><path d="M 90.609375 -88.203125 L 42.546875 24.25 C 41.921875 25.738281 41.101562 26.867188 40.09375 27.640625 C 39.09375 28.410156 37.5625 28.796875 35.5 28.796875 L 19.6875 28.796875 L 36.1875 -6.625 L 0.515625 -88.203125 L 19.171875 -88.203125 C 20.835938 -88.203125 22.140625 -87.800781 23.078125 -87 C 24.023438 -86.195312 24.726562 -85.28125 25.1875 -84.25 L 43.9375 -38.515625 C 44.5625 -36.960938 45.085938 -35.410156 45.515625 -33.859375 C 45.953125 -32.316406 46.367188 -30.742188 46.765625 -29.140625 C 47.285156 -30.742188 47.800781 -32.332031 48.3125 -33.90625 C 48.832031 -35.488281 49.40625 -37.050781 50.03125 -38.59375 L 67.75 -84.25 C 68.207031 -85.394531 68.960938 -86.335938 70.015625 -87.078125 C 71.078125 -87.828125 72.269531 -88.203125 73.59375 -88.203125 Z M 90.609375 -88.203125 "/></g></g></g><g fill="#000000" fill-opacity="1"><g transform="translate(794.909173, 239.305385)"><g/></g></g><g fill="#737373" fill-opacity="1"><g transform="translate(432.899662, 410.725091)"><g><path d="M 118.640625 -124.3125 L 118.640625 0 L 106.765625 0 C 104.929688 0 103.398438 -0.300781 102.171875 -0.90625 C 100.941406 -1.507812 99.753906 -2.523438 98.609375 -3.953125 L 33.703125 -86.828125 C 34.046875 -83.046875 34.21875 -79.550781 34.21875 -76.34375 L 34.21875 0 L 13.84375 0 L 13.84375 -124.3125 L 25.96875 -124.3125 C 26.9375 -124.3125 27.78125 -124.265625 28.5 -124.171875 C 29.21875 -124.085938 29.847656 -123.914062 30.390625 -123.65625 C 30.929688 -123.40625 31.457031 -123.035156 31.96875 -122.546875 C 32.488281 -122.054688 33.066406 -121.410156 33.703125 -120.609375 L 98.859375 -37.390625 C 98.691406 -39.398438 98.550781 -41.378906 98.4375 -43.328125 C 98.320312 -45.273438 98.265625 -47.082031 98.265625 -48.75 L 98.265625 -124.3125 Z M 118.640625 -124.3125 "/></g></g></g><g fill="#737373" fill-opacity="1"><g transform="translate(555.574324, 410.725091)"><g><path d="M 57.078125 -37.65625 C 50.953125 -37.363281 45.796875 -36.832031 41.609375 -36.0625 C 37.421875 -35.289062 34.066406 -34.300781 31.546875 -33.09375 C 29.023438 -31.894531 27.21875 -30.492188 26.125 -28.890625 C 25.039062 -27.285156 24.5 -25.535156 24.5 -23.640625 C 24.5 -19.910156 25.601562 -17.242188 27.8125 -15.640625 C 30.019531 -14.035156 32.898438 -13.234375 36.453125 -13.234375 C 40.804688 -13.234375 44.570312 -14.019531 47.75 -15.59375 C 50.9375 -17.175781 54.046875 -19.570312 57.078125 -22.78125 Z M 8.421875 -75.90625 C 18.566406 -85.195312 30.773438 -89.84375 45.046875 -89.84375 C 50.203125 -89.84375 54.816406 -88.992188 58.890625 -87.296875 C 62.960938 -85.609375 66.398438 -83.257812 69.203125 -80.25 C 72.015625 -77.238281 74.148438 -73.640625 75.609375 -69.453125 C 77.066406 -65.273438 77.796875 -60.691406 77.796875 -55.703125 L 77.796875 0 L 68.171875 0 C 66.171875 0 64.625 -0.300781 63.53125 -0.90625 C 62.4375 -1.507812 61.578125 -2.726562 60.953125 -4.5625 L 59.0625 -10.921875 C 56.820312 -8.910156 54.640625 -7.144531 52.515625 -5.625 C 50.398438 -4.113281 48.195312 -2.84375 45.90625 -1.8125 C 43.613281 -0.78125 41.160156 0.00390625 38.546875 0.546875 C 35.941406 1.097656 33.066406 1.375 29.921875 1.375 C 26.191406 1.375 22.75 0.875 19.59375 -0.125 C 16.445312 -1.132812 13.726562 -2.640625 11.4375 -4.640625 C 9.144531 -6.648438 7.367188 -9.144531 6.109375 -12.125 C 4.847656 -15.101562 4.21875 -18.570312 4.21875 -22.53125 C 4.21875 -24.757812 4.585938 -26.976562 5.328125 -29.1875 C 6.078125 -31.394531 7.296875 -33.5 8.984375 -35.5 C 10.671875 -37.507812 12.859375 -39.398438 15.546875 -41.171875 C 18.242188 -42.953125 21.554688 -44.5 25.484375 -45.8125 C 29.410156 -47.132812 33.984375 -48.210938 39.203125 -49.046875 C 44.421875 -49.878906 50.378906 -50.378906 57.078125 -50.546875 L 57.078125 -55.703125 C 57.078125 -61.609375 55.816406 -65.976562 53.296875 -68.8125 C 50.773438 -71.65625 47.132812 -73.078125 42.375 -73.078125 C 38.9375 -73.078125 36.085938 -72.675781 33.828125 -71.875 C 31.566406 -71.070312 29.578125 -70.164062 27.859375 -69.15625 C 26.140625 -68.15625 24.578125 -67.253906 23.171875 -66.453125 C 21.765625 -65.648438 20.203125 -65.25 18.484375 -65.25 C 16.992188 -65.25 15.734375 -65.632812 14.703125 -66.40625 C 13.671875 -67.1875 12.835938 -68.09375 12.203125 -69.125 Z M 8.421875 -75.90625 "/></g></g></g><g fill="#737373" fill-opacity="1"><g transform="translate(634.06188, 410.725091)"><g><path d="M 39.890625 1.375 C 32.210938 1.375 26.320312 -0.785156 22.21875 -5.109375 C 18.125 -9.441406 16.078125 -15.421875 16.078125 -23.046875 L 16.078125 -72.296875 L 7.046875 -72.296875 C 5.898438 -72.296875 4.925781 -72.664062 4.125 -73.40625 C 3.320312 -74.15625 2.921875 -75.273438 2.921875 -76.765625 L 2.921875 -85.1875 L 17.109375 -87.515625 L 21.578125 -111.59375 C 21.867188 -112.738281 22.414062 -113.625 23.21875 -114.25 C 24.019531 -114.882812 25.050781 -115.203125 26.3125 -115.203125 L 37.3125 -115.203125 L 37.3125 -87.4375 L 60.859375 -87.4375 L 60.859375 -72.296875 L 37.3125 -72.296875 L 37.3125 -24.5 C 37.3125 -21.75 37.984375 -19.597656 39.328125 -18.046875 C 40.671875 -16.503906 42.519531 -15.734375 44.875 -15.734375 C 46.195312 -15.734375 47.300781 -15.890625 48.1875 -16.203125 C 49.070312 -16.515625 49.84375 -16.84375 50.5 -17.1875 C 51.164062 -17.53125 51.753906 -17.859375 52.265625 -18.171875 C 52.785156 -18.492188 53.300781 -18.65625 53.8125 -18.65625 C 54.445312 -18.65625 54.960938 -18.492188 55.359375 -18.171875 C 55.765625 -17.859375 56.195312 -17.390625 56.65625 -16.765625 L 63.015625 -6.453125 C 59.921875 -3.867188 56.367188 -1.914062 52.359375 -0.59375 C 48.347656 0.71875 44.191406 1.375 39.890625 1.375 Z M 39.890625 1.375 "/></g></g></g><g fill="#737373" fill-opacity="1"><g transform="translate(690.455905, 410.725091)"><g><path d="M 32.5 -88.203125 L 32.5 0 L 11.171875 0 L 11.171875 -88.203125 Z M 35.421875 -113.90625 C 35.421875 -112.070312 35.046875 -110.351562 34.296875 -108.75 C 33.554688 -107.144531 32.566406 -105.738281 31.328125 -104.53125 C 30.097656 -103.332031 28.648438 -102.375 26.984375 -101.65625 C 25.328125 -100.9375 23.554688 -100.578125 21.671875 -100.578125 C 19.828125 -100.578125 18.085938 -100.9375 16.453125 -101.65625 C 14.828125 -102.375 13.410156 -103.332031 12.203125 -104.53125 C 11.003906 -105.738281 10.046875 -107.144531 9.328125 -108.75 C 8.609375 -110.351562 8.25 -112.070312 8.25 -113.90625 C 8.25 -115.800781 8.609375 -117.578125 9.328125 -119.234375 C 10.046875 -120.898438 11.003906 -122.332031 12.203125 -123.53125 C 13.410156 -124.738281 14.828125 -125.695312 16.453125 -126.40625 C 18.085938 -127.125 19.828125 -127.484375 21.671875 -127.484375 C 23.554688 -127.484375 25.328125 -127.125 26.984375 -126.40625 C 28.648438 -125.695312 30.097656 -124.738281 31.328125 -123.53125 C 32.566406 -122.332031 33.554688 -120.898438 34.296875 -119.234375 C 35.046875 -117.578125 35.421875 -115.800781 35.421875 -113.90625 Z M 35.421875 -113.90625 "/></g></g></g><g fill="#737373" fill-opacity="1"><g transform="translate(726.561682, 410.725091)"><g><path d="M 90.015625 -88.203125 L 55.015625 0 L 35.765625 0 L 0.78125 -88.203125 L 18.3125 -88.203125 C 19.914062 -88.203125 21.25 -87.828125 22.3125 -87.078125 C 23.375 -86.335938 24.078125 -85.394531 24.421875 -84.25 L 41.4375 -37.140625 C 42.351562 -34.390625 43.15625 -31.695312 43.84375 -29.0625 C 44.53125 -26.425781 45.132812 -23.785156 45.65625 -21.140625 C 46.226562 -23.785156 46.859375 -26.425781 47.546875 -29.0625 C 48.234375 -31.695312 49.0625 -34.390625 50.03125 -37.140625 L 67.40625 -84.25 C 67.800781 -85.394531 68.515625 -86.335938 69.546875 -87.078125 C 70.578125 -87.828125 71.8125 -88.203125 73.25 -88.203125 Z M 90.015625 -88.203125 "/></g></g></g><g fill="#737373" fill-opacity="1"><g transform="translate(807.0264, 410.725091)"><g><path d="M 67.3125 -54.25 C 67.3125 -57 66.925781 -59.59375 66.15625 -62.03125 C 65.382812 -64.46875 64.222656 -66.601562 62.671875 -68.4375 C 61.117188 -70.269531 59.15625 -71.710938 56.78125 -72.765625 C 54.40625 -73.828125 51.640625 -74.359375 48.484375 -74.359375 C 42.347656 -74.359375 37.519531 -72.609375 34 -69.109375 C 30.476562 -65.617188 28.226562 -60.664062 27.25 -54.25 Z M 26.828125 -41.4375 C 27.171875 -36.90625 27.972656 -32.992188 29.234375 -29.703125 C 30.492188 -26.410156 32.15625 -23.6875 34.21875 -21.53125 C 36.28125 -19.382812 38.726562 -17.78125 41.5625 -16.71875 C 44.40625 -15.65625 47.546875 -15.125 50.984375 -15.125 C 54.421875 -15.125 57.382812 -15.523438 59.875 -16.328125 C 62.363281 -17.128906 64.539062 -18.015625 66.40625 -18.984375 C 68.269531 -19.960938 69.90625 -20.851562 71.3125 -21.65625 C 72.71875 -22.46875 74.078125 -22.875 75.390625 -22.875 C 77.171875 -22.875 78.488281 -22.210938 79.34375 -20.890625 L 85.453125 -13.15625 C 83.097656 -10.40625 80.457031 -8.097656 77.53125 -6.234375 C 74.613281 -4.367188 71.5625 -2.878906 68.375 -1.765625 C 65.195312 -0.648438 61.960938 0.132812 58.671875 0.59375 C 55.378906 1.0625 52.1875 1.296875 49.09375 1.296875 C 42.957031 1.296875 37.253906 0.28125 31.984375 -1.75 C 26.710938 -3.789062 22.125 -6.800781 18.21875 -10.78125 C 14.320312 -14.769531 11.253906 -19.703125 9.015625 -25.578125 C 6.785156 -31.453125 5.671875 -38.257812 5.671875 -46 C 5.671875 -52.007812 6.644531 -57.664062 8.59375 -62.96875 C 10.539062 -68.269531 13.332031 -72.882812 16.96875 -76.8125 C 20.613281 -80.738281 25.054688 -83.847656 30.296875 -86.140625 C 35.546875 -88.429688 41.46875 -89.578125 48.0625 -89.578125 C 53.613281 -89.578125 58.738281 -88.6875 63.4375 -86.90625 C 68.144531 -85.132812 72.1875 -82.539062 75.5625 -79.125 C 78.945312 -75.71875 81.597656 -71.535156 83.515625 -66.578125 C 85.441406 -61.617188 86.40625 -55.960938 86.40625 -49.609375 C 86.40625 -46.398438 86.054688 -44.234375 85.359375 -43.109375 C 84.671875 -41.992188 83.351562 -41.4375 81.40625 -41.4375 Z M 26.828125 -41.4375 "/></g></g></g><g fill="#000000" fill-opacity="1"><g transform="translate(891.274273, 410.725091)"><g/></g></g><g fill="#ffffff" fill-opacity="1"><g transform="translate(925.497394, 410.725091)"><g><path d="M 63.875 -18.65625 C 68.34375 -18.65625 72.335938 -19.398438 75.859375 -20.890625 C 79.390625 -22.378906 82.359375 -24.46875 84.765625 -27.15625 C 87.171875 -29.851562 89.019531 -33.117188 90.3125 -36.953125 C 91.601562 -40.796875 92.25 -45.097656 92.25 -49.859375 L 92.25 -124.3125 L 115.375 -124.3125 L 115.375 -49.859375 C 115.375 -42.460938 114.179688 -35.625 111.796875 -29.34375 C 109.421875 -23.070312 106.007812 -17.660156 101.5625 -13.109375 C 97.125 -8.554688 91.722656 -5.003906 85.359375 -2.453125 C 79.003906 0.0976562 71.84375 1.375 63.875 1.375 C 55.851562 1.375 48.660156 0.0976562 42.296875 -2.453125 C 35.929688 -5.003906 30.523438 -8.554688 26.078125 -13.109375 C 21.640625 -17.660156 18.234375 -23.070312 15.859375 -29.34375 C 13.484375 -35.625 12.296875 -42.460938 12.296875 -49.859375 L 12.296875 -124.3125 L 35.421875 -124.3125 L 35.421875 -49.953125 C 35.421875 -45.191406 36.0625 -40.890625 37.34375 -37.046875 C 38.632812 -33.210938 40.5 -29.929688 42.9375 -27.203125 C 45.375 -24.484375 48.351562 -22.378906 51.875 -20.890625 C 55.40625 -19.398438 59.40625 -18.65625 63.875 -18.65625 Z M 63.875 -18.65625 "/></g></g></g><g fill="#ffffff" fill-opacity="1"><g transform="translate(1045.593156, 410.725091)"><g><path d="M 37.046875 0 L 13.84375 0 L 13.84375 -124.3125 L 37.046875 -124.3125 Z M 37.046875 0 "/></g></g></g></svg>