<?xml version="1.0" encoding="UTF-8" standalone="no"?>
<svg
   width="1442.0304"
   zoomAndPan="magnify"
   viewBox="0 0 1081.5228 403.05863"
   height="537.4115"
   preserveAspectRatio="xMidYMid"
   version="1.0"
   id="svg64"
   sodipodi:docname="Copy-native-ui-with-text-transparent-dark.svg"
   xmlns:inkscape="http://www.inkscape.org/namespaces/inkscape"
   xmlns:sodipodi="http://sodipodi.sourceforge.net/DTD/sodipodi-0.dtd"
   xmlns="http://www.w3.org/2000/svg"
   xmlns:svg="http://www.w3.org/2000/svg">
  <sodipodi:namedview
     id="namedview64"
     pagecolor="#ffffff"
     bordercolor="#000000"
     borderopacity="0.25"
     inkscape:showpageshadow="2"
     inkscape:pageopacity="0.0"
     inkscape:pagecheckerboard="0"
     inkscape:deskcolor="#d1d1d1" />
  <defs
     id="defs9">
    <clipPath
       id="66ac81c771">
      <path
         d="M 1.117188,31 H 429 V 482 H 1.117188 Z m 0,0"
         clip-rule="nonzero"
         id="path1" />
    </clipPath>
    <clipPath
       id="af07e04a1f">
      <path
         d="M 0.117188,26.238281 H 322.30078 V 348.42187 H 0.117188 Z m 0,0"
         clip-rule="nonzero"
         id="path2" />
    </clipPath>
    <clipPath
       id="add7e8d2c3">
      <path
         d="m 161.20703,26.238281 c -88.968749,0 -161.089842,72.121094 -161.089842,161.089839 0,88.96875 72.121093,161.09375 161.089842,161.09375 88.96875,0 161.09375,-72.125 161.09375,-161.09375 0,-88.968745 -72.125,-161.089839 -161.09375,-161.089839 z m 0,0"
         clip-rule="nonzero"
         id="path3" />
    </clipPath>
    <clipPath
       id="43ce94ae65">
      <path
         d="M 71.585938,93.910156 H 406.97266 V 429.29687 H 71.585938 Z m 0,0"
         clip-rule="nonzero"
         id="path4" />
    </clipPath>
    <clipPath
       id="6ab9ff4b73">
      <path
         d="m 239.27734,93.910156 c -92.61328,0 -167.691402,75.078124 -167.691402,167.695314 0,92.61328 75.078122,167.6914 167.691402,167.6914 92.61719,0 167.69532,-75.07812 167.69532,-167.6914 0,-92.61719 -75.07813,-167.695314 -167.69532,-167.695314 z m 0,0"
         clip-rule="nonzero"
         id="path5" />
    </clipPath>
    <clipPath
       id="c242946411">
      <path
         d="M 0.585938,0.910156 H 335.97266 V 336.29687 H 0.585938 Z m 0,0"
         clip-rule="nonzero"
         id="path6" />
    </clipPath>
    <clipPath
       id="366473a31f">
      <path
         d="m 168.27734,0.910156 c -92.613278,0 -167.691402,75.078125 -167.691402,167.695314 0,92.61328 75.078124,167.6914 167.691402,167.6914 92.61719,0 167.69532,-75.07812 167.69532,-167.6914 0,-92.617189 -75.07813,-167.695314 -167.69532,-167.695314 z m 0,0"
         clip-rule="nonzero"
         id="path7" />
    </clipPath>
    <clipPath
       id="b0bc44b9de">
      <rect
         x="0"
         width="336"
         y="0"
         height="337"
         id="rect7" />
    </clipPath>
    <clipPath
       id="bcbdaaf0f8">
      <path
         d="M 71.585938,93.910156 H 406.96875 V 429.29297 H 71.585938 Z m 0,0"
         clip-rule="nonzero"
         id="path8" />
    </clipPath>
    <clipPath
       id="12e0d06340">
      <path
         d="m 239.27734,93.910156 c -92.61328,0 -167.691402,75.078124 -167.691402,167.691404 0,92.61328 75.078122,167.69141 167.691402,167.69141 92.61328,0 167.69141,-75.07813 167.69141,-167.69141 0,-92.61328 -75.07813,-167.691404 -167.69141,-167.691404 z m 0,0"
         clip-rule="nonzero"
         id="path9" />
    </clipPath>
    <clipPath
       id="f8a2f78116">
      <rect
         x="0"
         width="428"
         y="0"
         height="451"
         id="rect9" />
    </clipPath>
  </defs>
  <g
     clip-path="url(#66ac81c771)"
     id="g22"
     transform="translate(-1.117188,-57.238285)">
    <g
       transform="translate(1,31)"
       id="g21">
      <g
         clip-path="url(#f8a2f78116)"
         id="g20">
        <g
           clip-path="url(#af07e04a1f)"
           id="g11">
          <g
             clip-path="url(#add7e8d2c3)"
             id="g10">
            <path
               stroke-linecap="butt"
               transform="matrix(0.536974,0,0,0.536974,0.116338,26.237492)"
               fill="none"
               stroke-linejoin="miter"
               d="M 299.99706,0.00147018 C 134.31174,0.00147018 0.00158138,134.31163 0.00158138,299.99695 c 0,165.68532 134.31015862,300.00275 299.99547862,300.00275 165.68532,0 300.00275,-134.31743 300.00275,-300.00275 0,-165.68532 -134.31743,-299.99547982 -300.00275,-299.99547982 z m 0,0"
               stroke="#a6a6a6"
               stroke-width="22.3045"
               stroke-opacity="1"
               stroke-miterlimit="4"
               id="path10" />
          </g>
        </g>
        <g
           clip-path="url(#43ce94ae65)"
           id="g17">
          <g
             clip-path="url(#6ab9ff4b73)"
             id="g16">
            <g
               transform="translate(71,93)"
               id="g15">
              <g
                 clip-path="url(#b0bc44b9de)"
                 id="g14">
                <g
                   clip-path="url(#c242946411)"
                   id="g13">
                  <g
                     clip-path="url(#366473a31f)"
                     id="g12">
                    <path
                       fill="#a6a6a6"
                       d="M 0.585938,0.910156 H 335.97266 V 336.29687 H 0.585938 Z m 0,0"
                       fill-opacity="1"
                       fill-rule="nonzero"
                       id="path11" />
                  </g>
                </g>
              </g>
            </g>
          </g>
        </g>
        <g
           clip-path="url(#bcbdaaf0f8)"
           id="g19">
          <g
             clip-path="url(#12e0d06340)"
             id="g18">
            <path
               stroke-linecap="butt"
               transform="matrix(0.536974,0,0,0.536974,71.584531,93.909455)"
               fill="none"
               stroke-linejoin="miter"
               d="M 312.2921,0.00130565 C 139.81961,0.00130565 0.00261917,139.8183 0.00261917,312.29079 c 0,172.47248 139.81699083,312.28948 312.28948083,312.28948 172.47248,0 312.28948,-139.817 312.28948,-312.28948 0,-172.47249 -139.817,-312.28948435 -312.28948,-312.28948435 z m 0,0"
               stroke="#a6a6a6"
               stroke-width="16.7283"
               stroke-opacity="1"
               stroke-miterlimit="4"
               id="path17" />
          </g>
        </g>
      </g>
    </g>
  </g>
  <g
     fill="#ffffff"
     fill-opacity="1"
     id="g25"
     transform="translate(-1.117188,-57.238285)">
    <g
       transform="translate(432.89966,239.30538)"
       id="g24">
      <g
         id="g23">
        <path
           d="m 99.203125,-29.3125 c 1.257815,0 2.378905,0.484375 3.359375,1.453125 l 9.10938,9.890625 c -5.04297,6.25 -11.2461,11.039062 -18.60938,14.359375 C 85.695312,-0.285156 76.859375,1.375 66.546875,1.375 57.316406,1.375 49.019531,-0.195312 41.65625,-3.34375 34.289062,-6.5 28,-10.882812 22.78125,-16.5 17.5625,-22.125 13.5625,-28.832031 10.78125,-36.625 8.007812,-44.414062 6.625,-52.925781 6.625,-62.15625 c 0,-9.34375 1.488281,-17.894531 4.46875,-25.65625 2.976562,-7.769531 7.175781,-14.46094 12.59375,-20.07813 5.414062,-5.61328 11.875,-9.98437 19.375,-13.10937 7.507812,-3.125 15.820312,-4.6875 24.9375,-4.6875 9.050781,0 17.085938,1.49219 24.109375,4.46875 7.019531,2.98047 13.000005,6.875 17.937505,11.6875 l -7.75,10.75 c -0.46094,0.6875 -1.04688,1.292969 -1.76563,1.8125 -0.710938,0.511719 -1.695312,0.765625 -2.953125,0.765625 -0.867187,0 -1.757813,-0.238281 -2.671875,-0.71875 -0.917969,-0.488281 -1.921875,-1.09375 -3.015625,-1.8125 -1.085937,-0.71875 -2.34375,-1.503905 -3.78125,-2.359375 -1.429687,-0.86328 -3.089844,-1.64844 -4.984375,-2.35938 -1.886719,-0.71875 -4.078125,-1.32031 -6.578125,-1.8125 -2.492187,-0.48828 -5.367187,-0.73437 -8.625,-0.73437 -5.5625,0 -10.652344,0.99219 -15.265625,2.96875 -4.617188,1.98047 -8.585938,4.84375 -11.90625,8.59375 -3.324219,3.75 -5.902344,8.335938 -7.734375,13.75 -1.835937,5.417969 -2.75,11.59375 -2.75,18.53125 0,6.992188 0.984375,13.210938 2.953125,18.65625 1.976562,5.449219 4.660156,10.039062 8.046875,13.765625 3.382813,3.71875 7.367187,6.570313 11.953125,8.546875 4.582031,1.980469 9.507812,2.96875 14.78125,2.96875 3.15625,0 6.003906,-0.171875 8.546875,-0.515625 2.550781,-0.34375 4.898437,-0.882813 7.046875,-1.625 2.15625,-0.75 4.191406,-1.710937 6.109375,-2.890625 1.925781,-1.175781 3.832031,-2.625 5.71875,-4.34375 0.570313,-0.519531 1.171875,-0.9375 1.796875,-1.25 0.632812,-0.3125 1.296875,-0.46875 1.984375,-0.46875 z m 0,0"
           id="path22" />
      </g>
    </g>
  </g>
  <g
     fill="#ffffff"
     fill-opacity="1"
     id="g28"
     transform="translate(-1.117188,-57.238285)">
    <g
       transform="translate(537.26332,239.30538)"
       id="g27">
      <g
         id="g26">
        <path
           d="m 49.515625,-89.578125 c 6.53125,0 12.472656,1.0625 17.828125,3.1875 5.363281,2.117187 9.953125,5.121094 13.765625,9.015625 3.8125,3.898438 6.75,8.65625 8.8125,14.28125 2.0625,5.617188 3.09375,11.886719 3.09375,18.8125 0,7 -1.03125,13.308594 -3.09375,18.921875 -2.0625,5.617187 -5,10.402344 -8.8125,14.359375 -3.8125,3.949219 -8.402344,6.984375 -13.765625,9.109375 -5.355469,2.125 -11.296875,3.1875 -17.828125,3.1875 -6.59375,0 -12.585937,-1.0625 -17.96875,-3.1875 C 26.160156,-4.015625 21.5625,-7.050781 17.75,-11 c -3.8125,-3.957031 -6.765625,-8.742188 -8.859375,-14.359375 -2.085937,-5.613281 -3.125,-11.921875 -3.125,-18.921875 0,-6.925781 1.039063,-13.195312 3.125,-18.8125 2.09375,-5.625 5.046875,-10.382812 8.859375,-14.28125 3.8125,-3.894531 8.410156,-6.898438 13.796875,-9.015625 5.382813,-2.125 11.375,-3.1875 17.96875,-3.1875 z m 0,74.53125 c 7.332031,0 12.757813,-2.460937 16.28125,-7.390625 3.53125,-4.925781 5.296875,-12.148438 5.296875,-21.671875 0,-9.507813 -1.765625,-16.753906 -5.296875,-21.734375 -3.523437,-4.988281 -8.949219,-7.484375 -16.28125,-7.484375 -7.449219,0 -12.964844,2.511719 -16.546875,7.53125 -3.585938,5.011719 -5.375,12.242187 -5.375,21.6875 0,9.460937 1.789062,16.667969 5.375,21.625 3.582031,4.960937 9.097656,7.4375 16.546875,7.4375 z m 0,0"
           id="path25" />
      </g>
    </g>
  </g>
  <g
     fill="#ffffff"
     fill-opacity="1"
     id="g31"
     transform="translate(-1.117188,-57.238285)">
    <g
       transform="translate(628.4741,239.30538)"
       id="g30">
      <g
         id="g29">
        <path
           d="m 31.71875,-22.875 c 2.40625,2.929688 5.023438,4.996094 7.859375,6.203125 2.84375,1.199219 5.925781,1.796875 9.25,1.796875 3.207031,0 6.097656,-0.597656 8.671875,-1.796875 2.582031,-1.207031 4.773438,-3.039063 6.578125,-5.5 C 65.890625,-24.640625 67.28125,-27.75 68.25,-31.5 c 0.976562,-3.757812 1.46875,-8.191406 1.46875,-13.296875 0,-5.15625 -0.417969,-9.519531 -1.25,-13.09375 -0.824219,-3.582031 -2.011719,-6.492187 -3.5625,-8.734375 -1.554688,-2.238281 -3.433594,-3.875 -5.640625,-4.90625 -2.199219,-1.03125 -4.703125,-1.546875 -7.515625,-1.546875 -4.40625,0 -8.164062,0.933594 -11.265625,2.796875 -3.09375,1.867188 -6.015625,4.492188 -8.765625,7.875 z m -1.109375,-53.296875 c 3.601563,-4.0625 7.695313,-7.351563 12.28125,-9.875 4.59375,-2.53125 9.984375,-3.796875 16.171875,-3.796875 4.8125,0 9.207031,1.007812 13.1875,3.015625 3.988281,2.011719 7.429688,4.921875 10.328125,8.734375 2.894531,3.804688 5.128906,8.5 6.703125,14.09375 1.570312,5.585938 2.359375,11.984375 2.359375,19.203125 0,6.59375 -0.890625,12.703125 -2.671875,18.328125 -1.773438,5.617188 -4.308594,10.484375 -7.609375,14.609375 -3.292969,4.125 -7.277344,7.351563 -11.953125,9.671875 -4.667969,2.320312 -9.890625,3.484375 -15.671875,3.484375 -4.929687,0 -9.140625,-0.761719 -12.640625,-2.28125 -3.5,-1.519531 -6.625,-3.628906 -9.375,-6.328125 V 28.796875 H 10.484375 v -117 H 23.46875 c 2.75,0 4.554688,1.292969 5.421875,3.875 z m 0,0"
           id="path28" />
      </g>
    </g>
  </g>
  <g
     fill="#ffffff"
     fill-opacity="1"
     id="g34"
     transform="translate(-1.117188,-57.238285)">
    <g
       transform="translate(716.07413,239.30538)"
       id="g33">
      <g
         id="g32">
        <path
           d="M 90.609375,-88.203125 42.546875,24.25 c -0.625,1.488281 -1.445313,2.617188 -2.453125,3.390625 -1,0.769531 -2.53125,1.15625 -4.59375,1.15625 H 19.6875 L 36.1875,-6.625 0.515625,-88.203125 h 18.65625 c 1.664063,0 2.96875,0.402344 3.90625,1.203125 0.945313,0.804688 1.648437,1.71875 2.109375,2.75 l 18.75,45.734375 c 0.625,1.554687 1.148438,3.105469 1.578125,4.65625 0.4375,1.542969 0.851563,3.117187 1.25,4.71875 0.519531,-1.601563 1.035156,-3.191406 1.546875,-4.765625 0.519531,-1.582031 1.09375,-3.144531 1.71875,-4.6875 L 67.75,-84.25 c 0.457031,-1.144531 1.210938,-2.085938 2.265625,-2.828125 1.0625,-0.75 2.253906,-1.125 3.578125,-1.125 z m 0,0"
           id="path31" />
      </g>
    </g>
  </g>
  <g
     fill="#737373"
     fill-opacity="1"
     id="g40"
     transform="translate(-1.117188,-57.238285)">
    <g
       transform="translate(432.89966,410.72509)"
       id="g39">
      <g
         id="g38">
        <path
           d="M 118.64063,-124.3125 V 0 h -11.875 c -1.83594,0 -3.36719,-0.300781 -4.59375,-0.90625 -1.23047,-0.601562 -2.417974,-1.617188 -3.562505,-3.046875 l -64.90625,-82.875 c 0.34375,3.78125 0.515625,7.277344 0.515625,10.484375 V 0 h -20.375 v -124.3125 h 12.125 c 0.96875,0 1.8125,0.0469 2.53125,0.14062 0.71875,0.0859 1.347656,0.25782 1.890625,0.51563 0.539063,0.25 1.066406,0.62109 1.578125,1.10937 0.519531,0.49219 1.097656,1.13672 1.734375,1.9375 l 65.15625,83.218755 c -0.167969,-2.007813 -0.308594,-3.988281 -0.421875,-5.9375 -0.117188,-1.945313 -0.171875,-3.753906 -0.171875,-5.421875 v -75.5625 z m 0,0"
           id="path37" />
      </g>
    </g>
  </g>
  <g
     fill="#737373"
     fill-opacity="1"
     id="g43"
     transform="translate(-1.117188,-57.238285)">
    <g
       transform="translate(555.57432,410.72509)"
       id="g42">
      <g
         id="g41">
        <path
           d="m 57.078125,-37.65625 c -6.125,0.292969 -11.28125,0.824219 -15.46875,1.59375 -4.1875,0.773438 -7.542969,1.761719 -10.0625,2.96875 -2.523437,1.199219 -4.328125,2.601562 -5.421875,4.203125 -1.085938,1.605469 -1.625,3.355469 -1.625,5.25 0,3.730469 1.101562,6.398437 3.3125,8 2.207031,1.605469 5.085938,2.40625 8.640625,2.40625 4.351563,0 8.117187,-0.785156 11.296875,-2.359375 3.1875,-1.582031 6.296875,-3.976562 9.328125,-7.1875 z m -48.65625,-38.25 c 10.144531,-9.289062 22.351563,-13.9375 36.625,-13.9375 5.15625,0 9.769531,0.851562 13.84375,2.546875 4.070313,1.6875 7.507813,4.039063 10.3125,7.046875 2.8125,3.011719 4.945313,6.609375 6.40625,10.796875 1.457031,4.179687 2.1875,8.761719 2.1875,13.75 V 0 h -9.625 c -2,0 -3.546875,-0.300781 -4.640625,-0.90625 C 62.4375,-1.507812 61.578125,-2.726562 60.953125,-4.5625 L 59.0625,-10.921875 c -2.242188,2.011719 -4.421875,3.777344 -6.546875,5.296875 -2.117187,1.511719 -4.320313,2.78125 -6.609375,3.8125 -2.292969,1.03125 -4.746094,1.81640625 -7.359375,2.359375 C 35.941406,1.097656 33.066406,1.375 29.921875,1.375 26.191406,1.375 22.75,0.875 19.59375,-0.125 16.445312,-1.132812 13.726562,-2.640625 11.4375,-4.640625 9.144531,-6.648438 7.367188,-9.144531 6.109375,-12.125 4.847656,-15.101562 4.21875,-18.570312 4.21875,-22.53125 c 0,-2.226562 0.367188,-4.445312 1.109375,-6.65625 0.75,-2.207031 1.96875,-4.3125 3.65625,-6.3125 1.6875,-2.007812 3.875,-3.898438 6.5625,-5.671875 2.695313,-1.78125 6.007813,-3.328125 9.9375,-4.640625 3.925781,-1.320312 8.5,-2.398438 13.71875,-3.234375 5.21875,-0.832031 11.175781,-1.332031 17.875,-1.5 v -5.15625 c 0,-5.90625 -1.261719,-10.273437 -3.78125,-13.109375 -2.523437,-2.84375 -6.164063,-4.265625 -10.921875,-4.265625 -3.4375,0 -6.289062,0.402344 -8.546875,1.203125 -2.261719,0.804688 -4.25,1.710938 -5.96875,2.71875 -1.71875,1 -3.28125,1.902344 -4.6875,2.703125 -1.40625,0.804687 -2.96875,1.203125 -4.6875,1.203125 -1.492187,0 -2.75,-0.382812 -3.78125,-1.15625 -1.03125,-0.78125 -1.867187,-1.6875 -2.5,-2.71875 z m 0,0"
           id="path40" />
      </g>
    </g>
  </g>
  <g
     fill="#737373"
     fill-opacity="1"
     id="g46"
     transform="translate(-1.117188,-57.238285)">
    <g
       transform="translate(634.06188,410.72509)"
       id="g45">
      <g
         id="g44">
        <path
           d="m 39.890625,1.375 c -7.679687,0 -13.570313,-2.160156 -17.671875,-6.484375 -4.09375,-4.332031 -6.140625,-10.3125 -6.140625,-17.9375 v -49.25 h -9.03125 c -1.148437,0 -2.121094,-0.367187 -2.921875,-1.109375 -0.804688,-0.75 -1.203125,-1.867188 -1.203125,-3.359375 V -85.1875 l 14.1875,-2.328125 4.46875,-24.078125 c 0.289063,-1.14453 0.835937,-2.03125 1.640625,-2.65625 0.800781,-0.63281 1.832031,-0.95313 3.09375,-0.95313 h 11 v 27.76563 h 23.546875 v 15.140625 H 37.3125 V -24.5 c 0,2.75 0.671875,4.902344 2.015625,6.453125 1.34375,1.542969 3.191406,2.3125 5.546875,2.3125 1.320312,0 2.425781,-0.15625 3.3125,-0.46875 0.882812,-0.3125 1.65625,-0.640625 2.3125,-0.984375 0.664062,-0.34375 1.253906,-0.671875 1.765625,-0.984375 0.519531,-0.320313 1.035156,-0.484375 1.546875,-0.484375 0.632812,0 1.148438,0.164062 1.546875,0.484375 0.40625,0.3125 0.835937,0.78125 1.296875,1.40625 l 6.359375,10.3125 c -3.09375,2.585937 -6.648437,4.539063 -10.65625,5.859375 C 48.347656,0.71875 44.191406,1.375 39.890625,1.375 Z m 0,0"
           id="path43" />
      </g>
    </g>
  </g>
  <g
     fill="#737373"
     fill-opacity="1"
     id="g49"
     transform="translate(-1.117188,-57.238285)">
    <g
       transform="translate(690.45591,410.72509)"
       id="g48">
      <g
         id="g47">
        <path
           d="M 32.5,-88.203125 V 0 H 11.171875 v -88.203125 z m 2.921875,-25.703125 c 0,1.83594 -0.375,3.55469 -1.125,5.15625 -0.742187,1.60547 -1.730469,3.01172 -2.96875,4.21875 -1.230469,1.19922 -2.679687,2.15625 -4.34375,2.875 -1.65625,0.71875 -3.429687,1.07812 -5.3125,1.07812 -1.84375,0 -3.585937,-0.35937 -5.21875,-1.07812 -1.625,-0.71875 -3.042969,-1.67578 -4.25,-2.875 -1.199219,-1.20703 -2.15625,-2.61328 -2.875,-4.21875 -0.71875,-1.60156 -1.078125,-3.32031 -1.078125,-5.15625 0,-1.89453 0.359375,-3.67188 1.078125,-5.32813 0.71875,-1.66406 1.675781,-3.09765 2.875,-4.29687 1.207031,-1.20703 2.625,-2.16406 4.25,-2.875 1.632813,-0.71875 3.375,-1.07813 5.21875,-1.07813 1.882813,0 3.65625,0.35938 5.3125,1.07813 1.664063,0.71094 3.113281,1.66797 4.34375,2.875 1.238281,1.19922 2.226563,2.63281 2.96875,4.29687 0.75,1.65625 1.125,3.4336 1.125,5.32813 z m 0,0"
           id="path46" />
      </g>
    </g>
  </g>
  <g
     fill="#737373"
     fill-opacity="1"
     id="g52"
     transform="translate(-1.117188,-57.238285)">
    <g
       transform="translate(726.56168,410.72509)"
       id="g51">
      <g
         id="g50">
        <path
           d="M 90.015625,-88.203125 55.015625,0 h -19.25 L 0.78125,-88.203125 H 18.3125 c 1.601562,0 2.9375,0.375 4,1.125 1.0625,0.742187 1.765625,1.683594 2.109375,2.828125 L 41.4375,-37.140625 c 0.914062,2.75 1.71875,5.445313 2.40625,8.078125 0.6875,2.636719 1.289062,5.277344 1.8125,7.921875 0.570312,-2.644531 1.203125,-5.285156 1.890625,-7.921875 0.6875,-2.632812 1.515625,-5.328125 2.484375,-8.078125 L 67.40625,-84.25 c 0.394531,-1.144531 1.109375,-2.085938 2.140625,-2.828125 1.03125,-0.75 2.265625,-1.125 3.703125,-1.125 z m 0,0"
           id="path49" />
      </g>
    </g>
  </g>
  <g
     fill="#737373"
     fill-opacity="1"
     id="g55"
     transform="translate(-1.117188,-57.238285)">
    <g
       transform="translate(807.0264,410.72509)"
       id="g54">
      <g
         id="g53">
        <path
           d="m 67.3125,-54.25 c 0,-2.75 -0.386719,-5.34375 -1.15625,-7.78125 -0.773438,-2.4375 -1.933594,-4.570312 -3.484375,-6.40625 -1.554687,-1.832031 -3.515625,-3.273438 -5.890625,-4.328125 -2.375,-1.0625 -5.140625,-1.59375 -8.296875,-1.59375 -6.136719,0 -10.964844,1.75 -14.484375,5.25 -3.523438,3.492187 -5.773438,8.445313 -6.75,14.859375 z m -40.484375,12.8125 c 0.34375,4.53125 1.144531,8.445312 2.40625,11.734375 1.257813,3.292969 2.921875,6.015625 4.984375,8.171875 2.0625,2.148438 4.507812,3.75 7.34375,4.8125 2.84375,1.0625 5.984375,1.59375 9.421875,1.59375 3.4375,0 6.398437,-0.398438 8.890625,-1.203125 2.488281,-0.800781 4.664062,-1.6875 6.53125,-2.65625 1.863281,-0.976563 3.5,-1.867187 4.90625,-2.671875 1.40625,-0.8125 2.765625,-1.21875 4.078125,-1.21875 1.78125,0 3.097656,0.664062 3.953125,1.984375 l 6.109375,7.734375 c -2.355469,2.75 -4.996094,5.058594 -7.921875,6.921875 -2.917969,1.867187 -5.96875,3.355469 -9.15625,4.46875 C 65.195312,-0.648438 61.960938,0.132812 58.671875,0.59375 55.378906,1.0625 52.1875,1.296875 49.09375,1.296875 42.957031,1.296875 37.253906,0.28125 31.984375,-1.75 26.710938,-3.789062 22.125,-6.800781 18.21875,-10.78125 14.320312,-14.769531 11.253906,-19.703125 9.015625,-25.578125 6.785156,-31.453125 5.671875,-38.257812 5.671875,-46 c 0,-6.007812 0.972656,-11.664062 2.921875,-16.96875 1.945312,-5.300781 4.738281,-9.914062 8.375,-13.84375 3.644531,-3.925781 8.085938,-7.035156 13.328125,-9.328125 5.25,-2.289063 11.171875,-3.4375 17.765625,-3.4375 5.550781,0 10.675781,0.890625 15.375,2.671875 4.707031,1.773438 8.75,4.367188 12.125,7.78125 3.382812,3.40625 6.035156,7.589844 7.953125,12.546875 1.925781,4.960937 2.890625,10.617187 2.890625,16.96875 0,3.210937 -0.351562,5.375 -1.046875,6.5 -0.6875,1.117187 -2.007813,1.671875 -3.953125,1.671875 z m 0,0"
           id="path52" />
      </g>
    </g>
  </g>
  <g
     fill="#ffffff"
     fill-opacity="1"
     id="g61"
     transform="translate(-1.117188,-57.238285)">
    <g
       transform="translate(925.49739,410.72509)"
       id="g60">
      <g
         id="g59">
        <path
           d="m 63.875,-18.65625 c 4.46875,0 8.460938,-0.742188 11.984375,-2.234375 3.53125,-1.488281 6.5,-3.578125 8.90625,-6.265625 2.40625,-2.695312 4.253906,-5.960938 5.546875,-9.796875 1.289062,-3.84375 1.9375,-8.144531 1.9375,-12.90625 V -124.3125 h 23.125 v 74.453125 c 0,7.398437 -1.19531,14.234375 -3.57812,20.515625 -2.375,6.273438 -5.78907,11.683594 -10.23438,16.234375 -4.4375,4.554687 -9.839844,8.105469 -16.203125,10.65625 C 79.003906,0.0976562 71.84375,1.375 63.875,1.375 c -8.023438,0 -15.214844,-1.2773438 -21.578125,-3.828125 -6.367187,-2.550781 -11.773437,-6.101563 -16.21875,-10.65625 -4.4375,-4.550781 -7.84375,-9.960937 -10.21875,-16.234375 -2.375,-6.28125 -3.5625,-13.117188 -3.5625,-20.515625 V -124.3125 h 23.125 v 74.359375 c 0,4.761719 0.640625,9.0625 1.921875,12.90625 1.289062,3.835937 3.15625,7.117187 5.59375,9.84375 2.4375,2.71875 5.414062,4.824219 8.9375,6.3125 3.53125,1.492187 7.53125,2.234375 12,2.234375 z m 0,0"
           id="path58" />
      </g>
    </g>
  </g>
  <g
     fill="#ffffff"
     fill-opacity="1"
     id="g64"
     transform="translate(-1.117188,-57.238285)">
    <g
       transform="translate(1045.5932,410.72509)"
       id="g63">
      <g
         id="g62">
        <path
           d="M 37.046875,0 H 13.84375 v -124.3125 h 23.203125 z m 0,0"
           id="path61" />
      </g>
    </g>
  </g>
</svg>
