<svg xmlns="http://www.w3.org/2000/svg" xmlns:xlink="http://www.w3.org/1999/xlink" width="758" zoomAndPan="magnify" viewBox="0 0 568.5 563.249982" height="751" preserveAspectRatio="xMidYMid meet" version="1.0"><defs><clipPath id="5f14594640"><path d="M 0.128906 0 L 449.53125 0 L 449.53125 449.402344 L 0.128906 449.402344 Z M 0.128906 0 " clip-rule="nonzero"/></clipPath><clipPath id="e579ca3b2c"><path d="M 224.828125 0 C 100.730469 0 0.128906 100.601562 0.128906 224.699219 C 0.128906 348.800781 100.730469 449.402344 224.828125 449.402344 C 348.929688 449.402344 449.53125 348.800781 449.53125 224.699219 C 449.53125 100.601562 348.929688 0 224.828125 0 Z M 224.828125 0 " clip-rule="nonzero"/></clipPath><clipPath id="dd6d9e772f"><path d="M 99.816406 94.394531 L 567.636719 94.394531 L 567.636719 562.210938 L 99.816406 562.210938 Z M 99.816406 94.394531 " clip-rule="nonzero"/></clipPath><clipPath id="5587b50e67"><path d="M 333.726562 94.394531 C 204.542969 94.394531 99.816406 199.117188 99.816406 328.300781 C 99.816406 457.488281 204.542969 562.210938 333.726562 562.210938 C 462.910156 562.210938 567.636719 457.488281 567.636719 328.300781 C 567.636719 199.117188 462.910156 94.394531 333.726562 94.394531 Z M 333.726562 94.394531 " clip-rule="nonzero"/></clipPath><clipPath id="4a3b40878c"><path d="M 0.816406 0.394531 L 468.636719 0.394531 L 468.636719 468.210938 L 0.816406 468.210938 Z M 0.816406 0.394531 " clip-rule="nonzero"/></clipPath><clipPath id="b71d2adde2"><path d="M 234.726562 0.394531 C 105.542969 0.394531 0.816406 105.117188 0.816406 234.300781 C 0.816406 363.488281 105.542969 468.210938 234.726562 468.210938 C 363.910156 468.210938 468.636719 363.488281 468.636719 234.300781 C 468.636719 105.117188 363.910156 0.394531 234.726562 0.394531 Z M 234.726562 0.394531 " clip-rule="nonzero"/></clipPath><clipPath id="5e14e9299d"><rect x="0" width="469" y="0" height="469"/></clipPath><clipPath id="b1bc822707"><path d="M 99.816406 94.394531 L 567.628906 94.394531 L 567.628906 562.203125 L 99.816406 562.203125 Z M 99.816406 94.394531 " clip-rule="nonzero"/></clipPath><clipPath id="a4f93425f5"><path d="M 333.722656 94.394531 C 204.539062 94.394531 99.816406 199.117188 99.816406 328.296875 C 99.816406 457.480469 204.539062 562.203125 333.722656 562.203125 C 462.902344 562.203125 567.625 457.480469 567.625 328.296875 C 567.625 199.117188 462.902344 94.394531 333.722656 94.394531 Z M 333.722656 94.394531 " clip-rule="nonzero"/></clipPath></defs><g clip-path="url(#5f14594640)"><g clip-path="url(#e579ca3b2c)"><path stroke-linecap="butt" transform="matrix(0.749003, 0, 0, 0.749003, 0.128333, 0)" fill="none" stroke-linejoin="miter" d="M 299.998678 0 C 134.3148 0 0.000764889 134.314036 0.000764889 299.997914 C 0.000764889 465.687007 134.3148 600.001042 299.998678 600.001042 C 465.687772 600.001042 600.001807 465.687007 600.001807 299.997914 C 600.001807 134.314036 465.687772 0 299.998678 0 Z M 299.998678 0 " stroke="#a6a6a6" stroke-width="12" stroke-opacity="1" stroke-miterlimit="4"/></g></g><g clip-path="url(#dd6d9e772f)"><g clip-path="url(#5587b50e67)"><g transform="matrix(1, 0, 0, 1, 99, 94)"><g clip-path="url(#5e14e9299d)"><g clip-path="url(#4a3b40878c)"><g clip-path="url(#b71d2adde2)"><path fill="#d9d9d9" d="M 0.816406 0.394531 L 468.636719 0.394531 L 468.636719 468.210938 L 0.816406 468.210938 Z M 0.816406 0.394531 " fill-opacity="1" fill-rule="nonzero"/></g></g></g></g></g></g><g clip-path="url(#b1bc822707)"><g clip-path="url(#a4f93425f5)"><path stroke-linecap="butt" transform="matrix(0.749003, 0, 0, 0.749003, 99.816287, 94.392745)" fill="none" stroke-linejoin="miter" d="M 312.290461 0.00238444 C 139.816303 0.00238444 0.000158701 139.818529 0.000158701 312.287472 C 0.000158701 484.76163 139.816303 624.577774 312.290461 624.577774 C 484.759404 624.577774 624.575548 484.76163 624.575548 312.287472 C 624.575548 139.818529 484.759404 0.00238444 312.290461 0.00238444 Z M 312.290461 0.00238444 " stroke="#a6a6a6" stroke-width="12" stroke-opacity="1" stroke-miterlimit="4"/></g></g></svg>